<?xml version="1.0" encoding="UTF-8" standalone="no"?>


<svg
   xmlns:dc="http://purl.org/dc/elements/1.1/"
   xmlns:cc="http://creativecommons.org/ns#"
   xmlns:rdf="http://www.w3.org/1999/02/22-rdf-syntax-ns#"
   xmlns:svg="http://www.w3.org/2000/svg"
   xmlns="http://www.w3.org/2000/svg"
   xmlns:sodipodi="http://sodipodi.sourceforge.net/DTD/sodipodi-0.dtd"
   xmlns:inkscape="http://www.inkscape.org/namespaces/inkscape"
   version="1.1"
   id="svg2"
   xml:space="preserve"
   width="291.09198"
   height="90.158661"
   viewBox="0 0 291.09198 90.158659"
   sodipodi:docname="Pentel.svg"
   inkscape:version="0.92.1 r15371"><metadata
     id="metadata8"><rdf:RDF><cc:Work
         rdf:about=""><dc:format>image/svg+xml</dc:format><dc:type
           rdf:resource="http://purl.org/dc/dcmitype/StillImage" /><dc:title></dc:title></cc:Work></rdf:RDF></metadata><defs
     id="defs6"><clipPath
       clipPathUnits="userSpaceOnUse"
       id="clipPath18"><path
         d="m 326.346,99.409 h 218.319 v 97.024 H 326.346 Z"
         id="path16"
         inkscape:connector-curvature="0" /></clipPath></defs><sodipodi:namedview
     pagecolor="#ffffff"
     bordercolor="#666666"
     borderopacity="1"
     objecttolerance="10"
     gridtolerance="10"
     guidetolerance="10"
     inkscape:pageopacity="0"
     inkscape:pageshadow="2"
     inkscape:window-width="958"
     inkscape:window-height="1008"
     id="namedview4"
     showgrid="false"
     fit-margin-top="0"
     fit-margin-left="0"
     fit-margin-right="0"
     fit-margin-bottom="0"
     inkscape:zoom="2.3786081"
     inkscape:cx="124.61358"
     inkscape:cy="-1.6405185"
     inkscape:window-x="953"
     inkscape:window-y="0"
     inkscape:window-maximized="0"
     inkscape:current-layer="g14" /><g
     id="g10"
     inkscape:groupmode="layer"
     inkscape:label="A9R8ql8br_1yp4c2v_b6k"
     transform="matrix(1.3333333,0,0,-1.3333333,-435.12799,222.70399)"><g
       id="g3716"><g
         id="g12"><g
           clip-path="url(#clipPath18)"
           id="g14"><g
             transform="translate(539.842,113.761)"
             id="g20"><path
               inkscape:connector-curvature="0"
               id="path22"
               style="fill:#ed1d24;fill-opacity:1;fill-rule:nonzero;stroke:none"
               d="m 0,0 h 0.855 c 0.441,0 0.701,0.236 0.701,0.664 0,0.423 -0.26,0.597 -0.701,0.597 L 0,1.261 Z m 0,-2.66 h -1.002 v 4.707 h 1.99 c 0.841,0 1.653,-0.264 1.653,-1.229 0,-0.61 -0.411,-1.029 -0.979,-1.147 L 2.601,-2.66 H 1.69 L 0.855,-0.778 H 0 Z" /></g><g
             transform="translate(536.951,113.344)"
             id="g24"><path
               inkscape:connector-curvature="0"
               id="path26"
               style="fill:#ed1d24;fill-opacity:1;fill-rule:nonzero;stroke:none"
               d="M 0,0 C 0,0.97 0.337,1.862 1.053,2.536 1.726,3.22 2.626,3.6 3.599,3.6 4.553,3.6 5.442,3.22 6.118,2.536 6.826,1.862 7.184,0.97 7.184,0 c 0,-1.988 -1.634,-3.595 -3.585,-3.595 -0.973,0 -1.873,0.383 -2.546,1.049 C 0.337,-1.889 0,-0.95 0,0 m 3.599,-4.101 c 1.097,0 2.1,0.401 2.916,1.187 C 7.29,-2.133 7.714,-1.1 7.714,0 7.714,1.103 7.29,2.134 6.515,2.915 5.699,3.71 4.696,4.115 3.599,4.115 1.345,4.115 -0.544,2.282 -0.544,0 c 0,-1.1 0.435,-2.133 1.219,-2.914 0.794,-0.786 1.819,-1.187 2.924,-1.187" /></g><g
             transform="translate(472.755,111.922)"
             id="g28"><path
               inkscape:connector-curvature="0"
               id="path30"
               style="fill:#ed1d24;fill-opacity:1;fill-rule:nonzero;stroke:none"
               d="m 0,0 c -0.749,0 -3.36,0.041 -4.17,0.184 -2.376,0.35 -3.942,1.552 -3.942,4.34 V 19.505 H 0.867 C -0.563,16.561 -1.379,13.264 -1.379,9.756 -1.379,6.27 -0.563,2.97 0.867,0.021 0.479,0.015 0.139,0 0,0 m 59.158,0 c -0.715,0 -3.316,0.041 -4.134,0.184 -2.382,0.35 -3.93,1.552 -3.93,4.34 v 37.61 H 38.517 V 23.458 c -4.082,5.226 -10.437,8.587 -17.582,8.587 -7.683,0 -14.458,-3.871 -18.472,-9.784 v 8.225 H -8.112 V 42.134 H -20.667 V 3.496 c 0,-10.462 5.949,-14.482 17.2,-14.482 2.483,0 4.357,0 5.93,0.349 v 7.902 c 4.014,-5.903 10.789,-9.778 18.472,-9.778 5.669,0 10.847,2.104 14.791,5.606 L 28.81,2.818 c -1.926,-2.198 -4.752,-3.607 -7.875,-3.607 -5.814,0 -10.536,4.738 -10.536,10.545 0,5.831 4.722,10.549 10.536,10.549 1.845,0 3.558,-0.491 5.071,-1.319 L 15.169,11.412 20.687,3.669 38.517,16.004 V 3.496 c 0,-10.462 5.931,-14.482 17.217,-14.482 2.493,0 4.346,0 5.945,0.349 V 0.168 C 61.022,0.041 59.54,0 59.158,0" /></g><g
             transform="translate(449.214,126.982)"
             id="g32"><path
               inkscape:connector-curvature="0"
               id="path34"
               style="fill:#ed1d24;fill-opacity:1;fill-rule:nonzero;stroke:none"
               d="m 0,0 c 0,9.379 -7.609,16.986 -16.959,16.986 h -0.018 c -7.208,0 -13.372,-4.49 -15.856,-10.822 -3.896,6.481 -10.989,10.822 -19.111,10.822 -5.894,0 -11.238,-2.278 -15.229,-6 0.023,0.407 0.039,0.817 0.039,1.23 0,15.371 -12.512,27.83 -27.886,27.83 -15.405,0 -27.848,-12.459 -27.848,-27.83 v -38.223 h 14.645 v 38.223 c 0,7.439 5.925,13.329 13.203,13.329 7.318,0 13.219,-5.89 13.219,-13.329 0,-7.413 -5.901,-13.152 -13.219,-13.152 -4.263,0 -7.988,1.868 -10.427,4.937 v -17.597 c 3.231,-1.28 6.727,-2.008 10.427,-2.008 6.02,0 11.602,1.921 16.152,5.165 v 0.011 c 1.689,1.196 3.245,2.61 4.634,4.142 0.516,-11.838 10.287,-21.286 22.29,-21.286 5.665,0 10.837,2.103 14.78,5.604 l -6.913,9.725 c -1.914,-2.196 -4.741,-3.585 -7.867,-3.585 -5.81,0 -10.539,4.717 -10.539,10.533 0,5.823 4.729,10.54 10.539,10.54 1.818,0 3.533,-0.488 5.071,-1.318 l -10.842,-7.576 5.507,-7.741 18.274,12.635 C -33.958,0.832 -33.985,0.419 -33.985,0 v -0.078 c 0,-0.193 -0.003,-0.376 -0.003,-0.557 v -25.372 h 12.562 v 26.98 c 0,3.46 2.777,4.558 4.467,4.558 1.639,0 4.419,-1.098 4.419,-4.558 v -26.98 H 0.024 v 25.372 c 0,0.181 -0.011,0.364 -0.024,0.557 V 0" /></g></g></g></g></g></svg>