<?xml version="1.0" encoding="UTF-8"?>
<svg id="katman_1" data-name="katman 1" xmlns="http://www.w3.org/2000/svg" version="1.1" viewBox="0 0 841.89 595.28">
  <defs>
    <style>
      .cls-1 {
        fill-rule: evenodd;
      }

      .cls-1, .cls-2, .cls-3 {
        stroke-width: 0px;
      }

      .cls-1, .cls-3 {
        fill: #e52428;
      }

      .cls-2 {
        fill: #6d6e70;
      }
    </style>
  </defs>
  <g>
    <path class="cls-3" d="M403.38,301.3h41.82v-72.2h22.45v-23.77h-42.7c-5.28.44-11.89,2.2-15.41,6.16-4.84,5.28-6.16,7.92-6.16,15.41v74.4Z"/>
    <path class="cls-3" d="M89.48,301.3h41.82v-72.2h22.45v-23.77h-42.26c-5.28.44-11.89,2.2-15.41,6.16-4.84,5.28-6.16,7.92-6.16,15.41v74.4h-.44Z"/>
    <g>
      <polygon class="cls-3" points="473.38 205.77 511.24 205.77 511.24 301.3 473.38 301.3 473.38 205.77"/>
      <path class="cls-3" d="M492.31,253.32"/>
    </g>
    <path class="cls-3" d="M470.73,173.63c0-12.33,9.69-22.01,22.01-22.01s22.01,9.69,22.01,22.01-9.69,22.01-22.01,22.01-22.01-9.69-22.01-22.01Z"/>
    <path class="cls-3" d="M530.61,301.3v-95.97h80.13c5.28.44,11.89,2.2,15.41,6.16,4.84,5.28,6.16,7.92,6.16,15.41v74.4h-40.06v-62.07c0-11.89-6.6-10.13-22.45-10.13v72.64h-39.18v-.44Z"/>
    <path class="cls-3" d="M384.01,177.15v29.5h15.85v22.45h-15.85v72.2h-40.5v-72.2h-25.53l-8.36-22.01,31.7-.88c6.16-.88,10.13-.88,15.41-6.6,6.16-7.04,8.8-12.33,10.13-22.45h17.17Z"/>
    <path class="cls-3" d="M752.49,207.53v117.55c-.88,4.84-2.2,7.48-5.72,11.01-3.08,3.52-5.72,4.84-10.13,6.16h-84.97v-22.01h53.27c4.4,0,9.69-3.08,9.69-6.6v-83.65h-20.69c-3.08,0-5.72,2.2-5.28,9.25v33.9c0,1.76,1.32,2.64,2.64,3.96,3.52,3.52,13.21,1.76,13.21,1.76v23.77h-34.78c-8.36,0-18.05-7.04-18.05-14.09v-66.04c.44-3.96,1.76-6.16,4.4-9.25,3.52-3.96,7.04-5.28,12.33-5.72h84.09Z"/>
    <path class="cls-3" d="M189.42,250.24c0-26.86,21.57-48.43,48.43-48.43s48.43,21.57,48.43,48.43-21.57,48.43-48.43,48.43-48.43-21.57-48.43-48.43Z"/>
    <path class="cls-1" d="M150.67,250.24c0-48.43,39.18-87.61,87.61-87.61s87.61,39.18,87.61,87.61-39.18,87.61-87.61,87.61-87.61-39.18-87.61-87.61ZM172.25,250.24c0-36.54,29.5-65.6,65.6-65.6s65.6,29.5,65.6,65.6-29.5,65.6-65.6,65.6-65.6-29.5-65.6-65.6Z"/>
  </g>
  <g id="upLASs">
    <g>
      <path class="cls-2" d="M141.43,388.03c-2.64.44-4.84.88-7.48.88l-.44-.44c-2.64-7.04-7.92-11.01-15.85-11.01-7.48,0-13.65,3.52-16.73,10.57-3.08,7.92-3.08,15.85,0,23.77,3.52,7.92,10.57,11.45,18.93,10.57,1.76,0,3.08-.44,4.84-.88,7.04-2.2,9.69-8.36,9.25-14.97h-14.97v-7.04h22.45v29.06h-6.16c-.44-2.2,0-4.4-.44-6.6h-.44c-3.08,4.4-7.48,6.6-12.77,7.04-5.72.88-11.45.44-16.73-2.2-7.04-3.08-11.01-8.8-12.77-16.29-2.2-8.8-2.2-17.17,1.76-25.53,3.96-8.36,10.57-12.77,19.37-14.09,6.6-.88,13.21,0,18.93,3.96,4.4,3.08,7.04,7.04,8.8,11.89v.44c.44.44.44.88.44.88Z"/>
      <path class="cls-2" d="M601.49,399.04c-1.32-.88-2.64-1.76-3.96-3.08-6.16-6.6-6.16-18.49,5.72-22.89,6.16-2.2,12.77-2.2,18.93.44,4.4,1.76,7.92,4.84,8.8,9.69,1.32,5.72-.88,11.45-5.72,14.97-.44.44-1.32.88-1.76,1.32.44.44.88.44,1.32.88,10.57,5.28,11.01,20.25,2.2,26.41-3.08,2.2-6.6,3.52-10.57,3.96-5.28.44-10.57.44-15.41-2.2-9.25-4.4-11.45-13.65-8.36-20.69,1.32-3.52,3.96-5.72,7.04-7.04.88-1.32,1.32-1.32,1.76-1.76ZM613.37,424.13c1.76,0,3.52,0,5.28-.44,4.84-1.32,7.48-4.4,7.92-8.8.44-3.96-1.32-8.36-5.28-10.13-5.28-2.64-11.01-2.64-16.29,0-3.96,2.2-5.72,5.72-5.28,10.13.44,3.96,2.64,6.6,6.16,8.36,2.2.44,4.4.88,7.48.88ZM612.49,396.84c3.52,0,6.16-.44,8.8-2.64s3.96-4.84,3.52-8.36c-.44-3.52-2.2-5.72-5.72-7.04-3.96-1.76-8.36-1.76-12.33,0-3.08,1.32-5.28,3.52-5.72,7.04-.44,3.96,1.32,7.04,4.84,9.25,2.2,1.32,4.4,1.32,6.6,1.76Z"/>
      <path class="cls-2" d="M266.9,428.54h-7.04c-.44-.44,0-.88,0-1.76v-22.89c0-1.76,0-3.52-.44-5.28-.88-3.96-3.52-6.16-7.48-6.6-6.16-.44-10.13,3.52-11.01,9.69,0,1.32-.44,3.08-.44,4.4v22.01h-7.04v-41.38h7.04v5.28h.44c4.4-5.72,10.13-6.6,16.73-5.28,3.08.44,5.72,2.64,7.04,5.28,0,.44.44.88.44,1.32.44,0,.44-.44.88-.88,3.08-3.96,7.04-5.72,11.89-6.16,3.96-.44,7.48.44,10.57,3.08,3.08,2.2,3.96,5.72,4.4,9.25.88,10.13,0,19.81.44,29.94h-7.04v-23.77c0-1.76,0-3.96-.44-5.72-.88-3.96-3.52-6.16-7.92-6.6-6.16,0-10.13,3.52-11.01,9.69,0,1.32-.44,2.64-.44,3.96v20.69c.44.44.44.88.44,1.76Z"/>
      <path class="cls-2" d="M527.09,402.56q-.44,0-.88.44c-2.64,3.96-6.6,5.72-11.01,6.6-6.16.88-11.45-.44-15.85-4.4-3.08-3.08-4.84-7.04-5.72-11.01-.88-8.36,2.2-15.41,8.8-19.81,7.48-4.4,18.49-3.96,24.65,1.76,3.52,3.08,5.28,7.48,6.16,12.33,1.76,9.69,1.32,19.37-2.2,28.62-2.64,6.16-6.6,11.01-13.65,12.77-6.6,1.76-13.21.88-18.49-3.96-2.64-2.64-4.4-5.72-4.84-9.25h7.48s0,.44.44.44c1.32,5.72,6.6,7.48,11.89,7.04,4.4-.44,7.48-2.64,9.25-6.16,2.64-5.28,3.52-10.57,3.96-15.41ZM526.21,390.23c0-11.89-10.57-14.97-18.05-11.89-4.84,2.2-7.48,6.6-7.04,12.77.44,7.92,6.6,13.21,14.97,11.89,6.16-1.32,10.13-6.16,10.13-12.77Z"/>
      <path class="cls-2" d="M553.94,421.93h30.38v6.6h-40.94v-6.16c.44,0,.44-.44.88-.88,7.48-5.28,14.53-11.01,21.13-17.17,3.08-3.08,5.72-5.72,7.92-9.69,1.32-2.64,2.2-5.28,2.2-8.36,0-3.96-2.64-7.48-6.6-8.36-2.64-.88-5.28-.88-7.48,0-5.28,1.32-8.36,5.28-8.8,11.01v1.32h-7.04c0-4.84,1.32-9.25,4.84-12.77,3.52-3.96,8.36-5.28,13.21-5.72,3.08,0,6.16,0,8.8.88,8.36,2.2,12.77,9.69,10.57,18.49-1.32,4.84-3.96,8.8-7.04,12.77-5.28,5.72-11.45,10.57-17.61,15.41-1.76,0-3.08,1.32-4.4,2.64,0-.44,0,0,0,0Z"/>
      <path class="cls-2" d="M159.48,410.05c-.44,5.72,3.08,11.01,8.36,12.77,6.6,2.2,11.89-.44,15.85-6.6,2.2.44,4.84.44,7.04.88-1.76,5.72-5.28,9.25-10.57,11.01-5.28,2.2-10.57,2.2-16.29.44-4.4-1.32-7.92-4.4-10.13-8.8-3.52-7.48-3.52-15.41,0-22.89,3.52-6.6,9.25-10.13,16.73-10.13,4.4,0,8.8.88,12.33,3.52,4.84,3.52,7.04,7.92,7.92,13.65.44,2.2.44,4.4.44,6.6-10.13-.44-21.13-.44-31.7-.44ZM184.13,403.88c0-7.04-5.72-12.33-12.77-11.89-7.48.44-12.77,5.72-11.89,11.89h24.65Z"/>
      <path class="cls-2" d="M330.74,402.12c.88-5.72-1.76-9.69-7.04-10.13-2.2-.44-4.4,0-6.6.44-3.08.88-5.28,3.08-5.72,6.16v.44h-7.04c0-3.96,1.76-7.04,4.84-9.69,2.64-2.2,5.72-3.08,8.8-3.52,3.52-.44,7.04-.44,10.57.44,5.72,1.32,8.8,5.28,9.25,11.45.44,4.84,0,9.25,0,14.09s0,10.13.88,14.97v1.32h-6.6c-.44-1.76,0-3.52-.44-5.28h-.44c-3.08,4.4-7.48,6.16-12.77,6.16-4.84,0-8.8-.88-12.33-4.4-3.08-3.52-3.96-7.48-3.08-11.89.88-3.52,3.08-5.72,6.16-7.04,3.96-1.76,8.36-2.64,12.33-3.08,3.08,0,6.16,0,9.25-.44ZM331.18,408.28c-2.64,0-4.84.44-7.48.44-3.08.44-6.16.44-8.8,1.76-3.08,1.32-4.84,3.08-4.4,6.16,0,3.08,1.76,5.28,4.84,6.16,3.52.88,7.04.44,10.13-.88,4.4-2.64,6.6-7.48,5.72-13.65Z"/>
      <path class="cls-2" d="M349.67,386.71h7.04c.44,1.76,0,3.52.44,5.28q.44,0,.88-.44c2.64-3.52,6.6-4.84,11.01-5.28,2.2,0,4.4,0,6.16.44,5.72,1.32,8.8,5.28,9.69,11.45.44,3.08.44,6.16.44,8.8v21.57h-7.04c-.44-.44-.44-1.32-.44-1.76v-24.21c0-1.32,0-2.64-.44-3.52-.88-4.4-3.52-6.16-7.92-6.6-7.92-.44-11.89,4.84-12.33,11.89-.44,7.48,0,14.97,0,22.45,0,.44,0,1.32-.44,1.76h-6.6c-.44-14.09-.44-27.74-.44-41.82Z"/>
      <path class="cls-2" d="M395.89,443.06v-6.16h4.4c2.64,0,4.84-1.32,6.16-3.96.88-1.32,1.32-3.08,1.76-4.84-5.28-13.65-10.13-27.74-15.41-41.82h7.92c3.52,10.57,7.04,21.13,10.57,31.26h.44c3.52-10.57,7.04-21.13,10.57-31.7h7.48c-.88,3.08-2.2,5.72-3.08,8.8-4.4,12.33-8.36,24.65-12.77,36.54-.44,1.76-1.32,3.08-2.2,4.4-1.76,3.52-4.4,5.28-8.36,6.16-2.64,1.76-5.28,1.32-7.48,1.32Z"/>
      <path class="cls-2" d="M472.5,384.51h-13.21c-.44-1.76,0-3.08,0-4.84,1.32-.44,2.2-.44,3.52-.44,5.72-.44,8.8-1.76,11.89-7.48h4.84v56.35h-7.04v-43.58Z"/>
      <path class="cls-2" d="M209.23,428.54h-6.6v-41.38h7.04v6.6c1.76-2.2,3.52-4.4,6.16-5.72s5.28-1.76,7.92-1.32v7.48h-3.96c-5.28,0-8.36,2.64-9.25,7.92-.44,1.32-.44,3.08-.44,4.4v20.69c-.44,0-.44.88-.88,1.32Z"/>
    </g>
  </g>
</svg>